<svg xmlns="http://www.w3.org/2000/svg" version="1.1" xmlns:xlink="http://www.w3.org/1999/xlink" xmlns:svgjs="http://svgjs.com/svgjs" width="97px" height="97px"><svg version="1.1" id="SvgjsSvg1012" x="0px" y="0px" width="97px" height="97px" viewBox="0 0 97 97" enable-background="new 0 0 97 97" xml:space="preserve" sodipodi:docname="icon.svg" inkscape:version="1.1 (c68e22c387, 2021-05-23)" xmlns:inkscape="http://www.inkscape.org/namespaces/inkscape" xmlns:sodipodi="http://sodipodi.sourceforge.net/DTD/sodipodi-0.dtd" xmlns="http://www.w3.org/2000/svg" xmlns:svg="http://www.w3.org/2000/svg"><defs id="SvgjsDefs1011"><inkscape:path-effect effect="circle_3pts" id="SvgjsInkscape:path-effect1010" is_visible="true" lpeversion="1"></inkscape:path-effect><pattern id="SvgjsPattern1009" patternUnits="userSpaceOnUse" width="6" height="6" x="0" y="0"></pattern></defs><sodipodi:namedview id="SvgjsSodipodi:namedview1008" pagecolor="#ffffff" bordercolor="#666666" borderopacity="1.0" inkscape:pageshadow="2" inkscape:pageopacity="0.0" inkscape:pagecheckerboard="0" showgrid="false" inkscape:zoom="8.0000001" inkscape:cx="64.062499" inkscape:cy="46.0625" inkscape:window-width="1920" inkscape:window-height="1137" inkscape:window-x="1912" inkscape:window-y="-8" inkscape:window-maximized="1" inkscape:current-layer="layer1"><inkscape:grid type="xygrid" id="SvgjsInkscape:grid1007"></inkscape:grid></sodipodi:namedview>

<g inkscape:groupmode="layer" id="SvgjsG1006" inkscape:label="Layer 1"><a id="SvgjsA1005" style="fill:#607d8b;fill-opacity:1" transform="rotate(90,47.970326,48.140342)"><g id="SvgjsG1004" transform="matrix(-0.70710678,-0.70710678,-0.70710678,0.70710678,117.08765,48.499586)" style="fill:#607d8b;fill-opacity:1">
	<path id="SvgjsPath1003" style="fill:#607d8b;fill-opacity:1" d="M 19.375 14.380859 C 18.910526 14.381058 18.460952 14.441729 18.027344 14.542969 L 31.513672 28.029297 C 32.256838 27.76255 33.053789 27.609527 33.888672 27.609375 C 37.77988 27.611475 40.929688 30.761304 40.929688 34.650391 C 40.929688 35.439522 40.795644 36.199682 40.556641 36.908203 L 56.623047 52.974609 A 17.952755 17.952755 0 0 1 58.232422 51.962891 L 58.232422 41.150391 C 55.688959 40.090438 53.901806 37.578352 53.900391 34.652344 C 53.901435 31.749583 55.654813 29.260248 58.160156 28.181641 L 58.160156 14.380859 L 19.375 14.380859 z M 64.021484 14.380859 L 64.021484 28.324219 C 66.366443 29.466902 67.984375 31.866163 67.984375 34.650391 C 67.986475 37.435684 66.365543 39.834588 64.021484 40.976562 L 64.021484 50.064453 A 17.952755 17.952755 0 0 1 66.693359 49.763672 A 17.952755 17.952755 0 0 1 81.763672 58.169922 L 81.765625 20.300781 C 81.765625 17.032534 79.113951 14.380859 75.845703 14.380859 L 64.021484 14.380859 z M 13.798828 18.332031 C 13.581436 18.948185 13.456882 19.60827 13.457031 20.298828 L 13.455078 58.546875 L 27.574219 58.546875 C 28.635655 56.002733 31.145436 54.215595 34.076172 54.214844 C 37.00218 54.216258 39.514267 56.003414 40.574219 58.546875 L 51.369141 58.546875 A 17.952755 17.952755 0 0 1 51.611328 58.167969 C 51.858755 57.748363 52.117642 57.33569 52.398438 56.9375 L 36.607422 41.146484 C 35.770207 41.497209 34.84963 41.690698 33.888672 41.691406 C 30.000292 41.692113 26.850485 38.540349 26.847656 34.648438 C 26.847481 33.68388 27.043223 32.764794 27.394531 31.927734 L 13.798828 18.332031 z M 13.455078 64.3125 L 13.455078 77.037109 C 13.455078 80.305356 16.103385 82.953664 19.373047 82.955078 L 57.412109 82.953125 A 17.952755 17.952755 0 0 1 48.740234 67.714844 A 17.952755 17.952755 0 0 1 49.111328 64.335938 L 40.400391 64.335938 C 39.258413 66.679997 36.859508 68.300828 34.074219 68.298828 C 31.279871 68.298828 28.86808 66.671297 27.730469 64.3125 L 13.455078 64.3125 z " transform="matrix(0.70710678,-0.70710678,-0.70710678,-0.70710678,49.247572,116.57981)"></path>
</g></a></g><g inkscape:groupmode="layer" id="SvgjsG1002" inkscape:label="Layer 3"></g><g inkscape:groupmode="layer" id="SvgjsG1001" inkscape:label="Layer 2"><path id="SvgjsPath1000" style="fill:#f05133;fill-opacity:1;stroke-width:3.39422" d="m 66.779257,52.416743 a 15.307087,15.307087 0 0 0 -15.30664,15.30664 15.307087,15.307087 0 0 0 15.30664,15.306642 15.307087,15.307087 0 0 0 8.80469,-2.82422 l 0.0957,0.0957 9.785149,9.785162 c 0,0 0.5159,0.70317 1.62696,0.76758 1.11105,0.0644 1.95703,-0.72461 1.95703,-0.72461 0,0 0.538,-0.33821 0.77148,-1.513672 0.23349,-1.17547 -0.57031,-2.01172 -0.57031,-2.01172 l -5.509769,-5.50977 -0.77343,-0.77344 -1.08203,-1.08203 -2.58399,-2.58398 -0.0781,-0.07813 a 15.307087,15.307087 0 0 0 2.86328,-8.853512 15.307087,15.307087 0 0 0 -15.30664,-15.30664 z"></path></g></svg><style>@media (prefers-color-scheme: light) { :root { filter: none; } }
</style></svg>